# xmcd
#
# Track frame offsets:
#	150
#	16296
#	33306
#	54123
#	71997
#	88629
#	105342
#	121056
#	134664
#	150567
#	170547
#	187989
#	206484
#	224007
#	244662
#	262428
#	278169
#	292965
#
# Disc length: 4148 seconds
#
# Revision: 2
# Processed by: cddbd v1.5.1PL0 Copyright (c) Steve Scherf et al.
# Submitted via: audiograbber 1.82.01
#
DISCID=08103212
DTITLE=Авраам Руссо - Знаю
DYEAR=2003
DGENRE=
TTITLE0=Знаю
TTITLE1=Опа-Опа
TTITLE2=Как быть
TTITLE3=Будь со мной
TTITLE4=Любовь и Судьба
TTITLE5=Просто любить тебя ( and К.Орбакайте)
TTITLE6=Не уходи
TTITLE7=Любовь которой больше нет (& К. Орбакайте)
TTITLE8=Романс
TTITLE9=Далеко далеко
TTITLE10=Tonight
TTITLE11=Amor
TTITLE12=Меня не гони
TTITLE13=Arabica
TTITLE14=Праздник
TTITLE15=Касабланка
TTITLE16=Там
TTITLE17=Ожидание
EXTD=
EXTT0=
EXTT1=
EXTT2=
EXTT3=
EXTT4=
EXTT5=
EXTT6=
EXTT7=
EXTT8=
EXTT9=
EXTT10=
EXTT11=
EXTT12=
EXTT13=
EXTT14=
EXTT15=
EXTT16=
EXTT17=
PLAYORDER=
